<?xml version="1.0" encoding="utf-8"?>
<!-- <svg viewBox="144.609 0 81.953 91.675" xmlns="http://www.w3.org/2000/svg"> -->
<svg viewBox="144.609 0 81.953 91.675" width="61px" height="71px"
    xmlns="http://www.w3.org/2000/svg">
    <defs>
        <clipPath id="80837504cd">
            <path d="M 151.355469 21 L 219.519531 21 L 219.519531 89.941406 L 151.355469 89.941406 Z M 151.355469 21 " clip-rule="nonzero"/>
        </clipPath>
        <clipPath id="115578fba6">
            <path d="M 166 0.0585938 L 205 0.0585938 L 205 17 L 166 17 Z M 166 0.0585938 " clip-rule="nonzero"/>
        </clipPath>
    </defs>
    <g clip-path="url(#80837504cd)">
        <path fill="#000000" d="M 219.394531 52.570312 C 219.15625 50.730469 218.800781 48.828125 218.386719 47.167969 L 217.199219 42.0625 C 215.535156 35.234375 213.875 28.464844 211.914062 21.695312 C 212.507812 28.703125 213.339844 35.648438 214.171875 42.59375 C 214.585938 46.039062 215.238281 49.601562 215.296875 52.808594 C 215.359375 56.074219 214.941406 59.339844 214.050781 62.425781 C 213.101562 65.511719 211.734375 68.480469 209.894531 71.035156 C 208.054688 73.648438 205.859375 75.902344 203.304688 77.800781 C 198.199219 81.542969 191.90625 83.621094 185.554688 83.5625 L 185.433594 83.5625 C 179.140625 83.5625 172.90625 81.484375 167.859375 77.742188 C 165.25 75.84375 163.109375 73.585938 161.269531 70.976562 C 159.429688 68.363281 158.0625 65.453125 157.113281 62.367188 C 156.222656 59.277344 155.808594 56.011719 155.867188 52.746094 C 155.925781 49.542969 156.582031 45.980469 156.996094 42.535156 C 157.828125 35.589844 158.65625 28.644531 159.25 21.636719 C 157.292969 28.40625 155.628906 35.175781 153.96875 42 L 152.78125 47.109375 C 152.363281 48.769531 152.007812 50.671875 151.769531 52.511719 C 151.355469 56.191406 151.59375 59.992188 152.363281 63.671875 C 153.910156 71.035156 158.183594 77.921875 164.296875 82.613281 C 167.328125 84.988281 170.710938 86.765625 174.332031 88.074219 C 176.945312 88.964844 179.675781 89.5 182.464844 89.796875 L 188.757812 89.796875 C 191.550781 89.558594 194.28125 88.964844 196.894531 88.074219 C 200.515625 86.828125 203.957031 84.988281 206.925781 82.613281 C 212.984375 77.921875 217.257812 70.976562 218.800781 63.671875 C 219.574219 60.050781 219.808594 56.25 219.394531 52.570312 Z M 219.394531 52.570312 " fill-opacity="1" fill-rule="nonzero"/>
    </g>
    <path fill="#8c032e" d="M 210.3125 59.042969 C 209.242188 63.96875 206.6875 68.601562 202.832031 72.042969 C 198.257812 76.199219 192.203125 78.691406 185.554688 78.691406 C 178.902344 78.691406 172.847656 76.140625 168.277344 72.042969 C 161.921875 66.285156 159.191406 57.558594 160.558594 49.125 C 181.574219 42.832031 197.84375 59.933594 210.3125 59.042969 Z M 210.3125 59.042969 " fill-opacity="1" fill-rule="nonzero"/>
    <path fill="#ffffff" d="M 174.628906 63.136719 C 176.824219 65.335938 177.480469 68.304688 176.054688 69.726562 C 174.628906 71.152344 171.71875 70.5 169.464844 68.304688 C 167.265625 66.105469 166.613281 63.136719 168.039062 61.714844 C 169.523438 60.289062 172.433594 60.941406 174.628906 63.136719 Z M 174.628906 63.136719 " fill-opacity="1" fill-rule="nonzero"/>
    <g clip-path="url(#115578fba6)">
        <path fill="#000000" d="M 193.984375 4.0625 L 190.242188 5.785156 C 189.648438 6.082031 188.878906 5.964844 188.402344 5.488281 C 187.632812 4.777344 186.621094 4.359375 185.554688 4.359375 C 184.484375 4.359375 183.476562 4.777344 182.703125 5.488281 C 182.167969 5.964844 181.457031 6.082031 180.863281 5.785156 L 177.121094 4.0625 L 170.589844 1.035156 C 168.808594 0.203125 166.792969 1.511719 166.792969 3.46875 L 166.792969 14.15625 C 166.792969 16.117188 168.808594 17.421875 170.589844 16.589844 L 177.121094 13.5625 L 180.863281 11.839844 C 181.515625 11.542969 182.226562 11.664062 182.703125 12.136719 C 183.476562 12.851562 184.484375 13.265625 185.554688 13.265625 C 186.621094 13.265625 187.632812 12.851562 188.402344 12.136719 C 188.9375 11.664062 189.648438 11.542969 190.242188 11.839844 L 193.984375 13.5625 L 200.515625 16.589844 C 202.296875 17.421875 204.3125 16.117188 204.3125 14.15625 L 204.3125 3.46875 C 204.3125 1.511719 202.296875 0.203125 200.515625 1.035156 Z M 193.984375 4.0625 " fill-opacity="1" fill-rule="nonzero"/>
    </g>
    <path fill="#000000" d="M 188.105469 23.539062 C 188.105469 24.960938 186.976562 26.089844 185.554688 26.089844 C 184.128906 26.089844 183 24.960938 183 23.539062 C 183 22.113281 184.128906 20.984375 185.554688 20.984375 C 186.976562 20.984375 188.105469 22.113281 188.105469 23.539062 Z M 188.105469 23.539062 " fill-opacity="1" fill-rule="nonzero"/>
    <path fill="#000000" d="M 188.105469 33.214844 C 188.105469 34.640625 186.976562 35.769531 185.554688 35.769531 C 184.128906 35.769531 183 34.640625 183 33.214844 C 183 31.789062 184.128906 30.660156 185.554688 30.660156 C 186.976562 30.660156 188.105469 31.789062 188.105469 33.214844 Z M 188.105469 33.214844 " fill-opacity="1" fill-rule="nonzero"/>
    <path fill="#000000" d="M 188.105469 42.953125 C 188.105469 44.375 186.976562 45.503906 185.554688 45.503906 C 184.128906 45.503906 183 44.375 183 42.953125 C 183 41.527344 184.128906 40.398438 185.554688 40.398438 C 186.976562 40.398438 188.105469 41.527344 188.105469 42.953125 Z M 188.105469 42.953125 " fill-opacity="1" fill-rule="nonzero"/>
</svg>